<svg width="191" height="31" viewBox="0 0 191 31" fill="none" xmlns="http://www.w3.org/2000/svg">
<path d="M-1.94311e-05 29.9609V8.90094H2.85998L3.11998 11.8209C3.97331 10.7409 5.03998 9.91427 6.31998 9.34094C7.61331 8.75427 8.86665 8.46094 10.08 8.46094C12.1466 8.46094 13.6466 9.0076 14.58 10.1009C15.5266 11.1943 16 12.7143 16 14.6609V29.9609H12.64V17.1409C12.64 15.7009 12.56 14.5409 12.4 13.6609C12.24 12.7676 11.9066 12.1209 11.4 11.7209C10.8933 11.3076 10.1066 11.1009 9.03998 11.1009C8.21331 11.1009 7.43331 11.2809 6.69998 11.6409C5.97998 12.0009 5.33331 12.4543 4.75998 13.0009C4.19998 13.5343 3.73331 14.0743 3.35998 14.6209V29.9609H-1.94311e-05ZM30.4044 8.46094C32.391 8.46094 34.051 8.91427 35.3844 9.82094C36.731 10.7143 37.7377 11.9809 38.4044 13.6209C39.0844 15.2609 39.4244 17.1943 39.4244 19.4209C39.4244 21.5676 39.0777 23.4676 38.3844 25.1209C37.691 26.7743 36.671 28.0743 35.3244 29.0209C33.991 29.9543 32.3377 30.4209 30.3644 30.4209C28.391 30.4209 26.731 29.9676 25.3844 29.0609C24.0377 28.1543 23.0177 26.8809 22.3244 25.2409C21.6444 23.5876 21.3044 21.6609 21.3044 19.4609C21.3044 17.2876 21.651 15.3743 22.3444 13.7209C23.0377 12.0676 24.0577 10.7809 25.4044 9.86094C26.7644 8.9276 28.431 8.46094 30.4044 8.46094ZM30.4044 11.2009C28.591 11.2009 27.2177 11.8743 26.2844 13.2209C25.3644 14.5543 24.9044 16.6343 24.9044 19.4609C24.9044 22.2343 25.3577 24.2943 26.2644 25.6409C27.1844 26.9876 28.551 27.6609 30.3644 27.6609C32.1777 27.6609 33.5377 26.9876 34.4444 25.6409C35.3644 24.2943 35.8244 22.2209 35.8244 19.4209C35.8244 16.6209 35.371 14.5543 34.4644 13.2209C33.5577 11.8743 32.2044 11.2009 30.4044 11.2009ZM46.8087 29.9609H42.9687L50.7487 18.8409L43.9287 8.90094H47.9087L52.7887 16.7409L57.7287 8.90094H61.5687L54.7687 18.7009L62.5287 29.9609H58.4087L52.6487 20.9209L46.8087 29.9609ZM79.5931 0.000936985C80.7264 0.000936985 81.7531 0.100937 82.6731 0.300937C83.5931 0.500937 84.4664 0.780936 85.2931 1.14094L84.2131 3.64094C83.5331 3.3476 82.8131 3.1276 82.0531 2.98094C81.2931 2.83427 80.5064 2.76094 79.6931 2.76094C78.2264 2.76094 77.1198 3.0476 76.3731 3.62094C75.6398 4.19427 75.2731 5.07427 75.2731 6.26094V10.5409H82.4131L82.0531 13.1809H75.2731V29.9609H71.9131V13.1809H66.8931V10.5409H71.9131V6.34094C71.9131 5.03427 72.2464 3.9076 72.9131 2.96094C73.5931 2.01427 74.5131 1.2876 75.6731 0.780935C76.8331 0.260936 78.1398 0.000936985 79.5931 0.000936985ZM89.7375 29.9609V27.3809H93.0175V11.4809H89.7375V8.90094H95.5775L96.1975 13.8809C97.0108 12.1476 97.9975 10.8076 99.1575 9.86094C100.317 8.91427 101.851 8.44094 103.757 8.44094C104.344 8.44094 104.864 8.4876 105.317 8.58094C105.784 8.66094 106.257 8.7676 106.737 8.90094L105.757 11.9009C105.317 11.7809 104.917 11.6943 104.557 11.6409C104.197 11.5743 103.784 11.5409 103.317 11.5409C101.704 11.5409 100.317 12.1143 99.1575 13.2609C97.9975 14.4076 97.0708 16.1409 96.3775 18.4609V27.3809H100.657V29.9609H89.7375ZM103.497 16.0209V11.4409L103.837 8.90094H106.737L106.257 16.0209H103.497ZM127.002 25.3609C127.002 26.2009 127.142 26.8143 127.422 27.2009C127.702 27.5876 128.135 27.8743 128.722 28.0609L127.902 30.4209C126.995 30.3009 126.202 30.0143 125.522 29.5609C124.842 29.0943 124.349 28.3943 124.042 27.4609C123.282 28.4343 122.335 29.1743 121.202 29.6809C120.069 30.1743 118.815 30.4209 117.442 30.4209C115.335 30.4209 113.675 29.8276 112.462 28.6409C111.249 27.4543 110.642 25.8809 110.642 23.9209C110.642 21.7476 111.489 20.0809 113.182 18.9209C114.875 17.7609 117.322 17.1809 120.522 17.1809H123.622V15.4209C123.622 13.9009 123.175 12.8276 122.282 12.2009C121.402 11.5609 120.175 11.2409 118.602 11.2409C117.909 11.2409 117.095 11.3276 116.162 11.5009C115.229 11.6609 114.215 11.9343 113.122 12.3209L112.242 9.78094C113.535 9.30094 114.749 8.96094 115.882 8.76094C117.015 8.56094 118.095 8.46094 119.122 8.46094C121.749 8.46094 123.715 9.07427 125.022 10.3009C126.342 11.5143 127.002 13.1676 127.002 15.2609V25.3609ZM118.302 27.8609C119.342 27.8609 120.335 27.6009 121.282 27.0809C122.229 26.5476 123.009 25.8143 123.622 24.8809V19.4609H120.582C118.262 19.4609 116.622 19.8609 115.662 20.6609C114.715 21.4609 114.242 22.5343 114.242 23.8809C114.242 25.1876 114.575 26.1809 115.242 26.8609C115.922 27.5276 116.942 27.8609 118.302 27.8609ZM148.186 8.46094C148.866 8.46094 149.513 8.6076 150.126 8.90094C150.753 9.19427 151.266 9.76094 151.666 10.6009C152.066 11.4409 152.266 12.6676 152.266 14.2809V29.9609H149.146V14.8209C149.146 13.5009 149.066 12.5476 148.906 11.9609C148.746 11.3743 148.286 11.0809 147.526 11.0809C146.9 11.0809 146.273 11.2809 145.646 11.6809C145.033 12.0676 144.433 12.7076 143.846 13.6009V29.9609H140.706V14.8209C140.706 13.5009 140.626 12.5476 140.466 11.9609C140.306 11.3743 139.846 11.0809 139.086 11.0809C138.433 11.0809 137.8 11.2809 137.186 11.6809C136.586 12.0676 135.993 12.7076 135.406 13.6009V29.9609H132.306V8.90094H134.946L135.146 11.3409C135.72 10.5276 136.36 9.8476 137.066 9.30094C137.786 8.74094 138.673 8.46094 139.726 8.46094C140.526 8.46094 141.28 8.65427 141.986 9.04094C142.693 9.41427 143.213 10.1476 143.546 11.2409C144.12 10.4143 144.766 9.7476 145.486 9.24094C146.206 8.72094 147.106 8.46094 148.186 8.46094ZM159.331 20.6209C159.397 22.2476 159.711 23.5809 160.271 24.6209C160.831 25.6476 161.571 26.4076 162.491 26.9009C163.411 27.3809 164.411 27.6209 165.491 27.6209C166.571 27.6209 167.544 27.4609 168.411 27.1409C169.291 26.8209 170.191 26.3476 171.111 25.7209L172.691 27.9409C171.704 28.7143 170.577 29.3209 169.311 29.7609C168.057 30.2009 166.771 30.4209 165.451 30.4209C163.411 30.4209 161.671 29.9609 160.231 29.0409C158.791 28.1209 157.691 26.8409 156.931 25.2009C156.184 23.5476 155.811 21.6343 155.811 19.4609C155.811 17.3276 156.191 15.4343 156.951 13.7809C157.711 12.1276 158.777 10.8276 160.151 9.88094C161.524 8.93427 163.144 8.46094 165.011 8.46094C166.784 8.46094 168.311 8.88094 169.591 9.72094C170.871 10.5476 171.851 11.7343 172.531 13.2809C173.224 14.8143 173.571 16.6476 173.571 18.7809C173.571 19.1409 173.564 19.4809 173.551 19.8009C173.537 20.1076 173.517 20.3809 173.491 20.6209H159.331ZM165.051 11.2209C163.491 11.2209 162.184 11.7743 161.131 12.8809C160.091 13.9876 159.497 15.7009 159.351 18.0209H170.331C170.291 15.7676 169.797 14.0743 168.851 12.9409C167.904 11.7943 166.637 11.2209 165.051 11.2209ZM183.515 26.8809C183.515 26.2276 183.668 25.6409 183.975 25.1209C184.282 24.5876 184.695 24.1676 185.215 23.8609C185.748 23.5409 186.348 23.3809 187.015 23.3809C187.695 23.3809 188.302 23.5409 188.835 23.8609C189.368 24.1676 189.788 24.5876 190.095 25.1209C190.402 25.6409 190.555 26.2276 190.555 26.8809C190.555 27.5343 190.402 28.1343 190.095 28.6809C189.788 29.2143 189.368 29.6409 188.835 29.9609C188.302 30.2676 187.695 30.4209 187.015 30.4209C186.348 30.4209 185.748 30.2676 185.215 29.9609C184.695 29.6409 184.282 29.2143 183.975 28.6809C183.668 28.1343 183.515 27.5343 183.515 26.8809Z" fill="#F8F8F8"/>
</svg>
